<?xml version="1.0" standalone="no"?>
<!DOCTYPE svg PUBLIC "-//W3C//DTD SVG 20010904//EN"
 "http://www.w3.org/TR/2001/REC-SVG-20010904/DTD/svg10.dtd">
<svg version="1.0" xmlns="http://www.w3.org/2000/svg"
 width="640.000000pt" height="640.000000pt" viewBox="0 0 640.000000 640.000000"
 preserveAspectRatio="xMidYMid meet">
<metadata>
Created by potrace 1.14, written by Peter Selinger 2001-2017
</metadata>
<g transform="translate(0.000000,640.000000) scale(0.100000,-0.100000)"
fill="#000000" stroke="none">
<path d="M0 3768 l0 -2633 52 -2 c273 -8 282 -8 345 15 34 12 96 43 138 68
100 61 173 85 272 92 250 16 466 -126 550 -360 22 -61 26 -90 26 -173 -1 -200
-84 -348 -259 -461 -117 -75 -144 -122 -144 -245 l0 -69 2710 0 2710 0 0 1160
0 1160 -72 1 c-40 0 -143 1 -228 2 l-155 2 -4 25 c-7 52 11 210 26 225 12 12
53 15 224 15 l209 0 0 1401 c0 953 -3 1398 -10 1394 -6 -4 -27 -39 -47 -78
-111 -222 -274 -359 -493 -413 -95 -24 -258 -24 -350 -1 -149 39 -305 142
-397 264 -120 160 -164 322 -142 534 12 123 5 164 -40 226 -16 22 -46 48 -67
57 -141 66 -173 85 -235 146 -69 69 -107 135 -129 228 l-12 52 -1324 0 c-728
0 -1324 -4 -1324 -8 0 -4 -49 -79 -109 -167 -108 -156 -110 -159 -95 -186 8
-16 19 -62 26 -103 20 -130 -16 -237 -93 -276 -49 -26 -105 -25 -166 1 l-48
20 -18 -23 c-9 -13 -26 -33 -36 -45 -11 -13 -16 -23 -13 -23 4 0 3 -4 -3 -8
-5 -4 -15 -15 -20 -26 -6 -10 -15 -18 -19 -16 -5 1 -13 -4 -18 -12 -6 -9 -7
-5 -2 12 8 32 24 51 35 44 9 -5 13 9 10 33 -1 6 7 17 17 25 10 7 21 23 24 35
8 29 -40 60 -103 69 -38 5 -47 2 -66 -18 -12 -12 -29 -52 -38 -87 -31 -119
-69 -176 -150 -222 -34 -19 -55 -23 -145 -23 -80 -1 -117 3 -153 17 -39 16
-46 22 -36 33 15 18 33 18 26 -1 -4 -8 -2 -17 2 -19 4 -3 8 7 7 21 -1 27 39
74 98 116 15 10 26 24 26 32 0 14 12 19 33 16 4 0 7 6 7 14 0 8 9 19 20 25 11
6 20 16 20 23 0 7 16 22 35 35 19 12 35 28 35 36 0 8 12 22 28 31 15 10 58 50
96 89 38 39 73 70 78 69 4 -2 8 4 8 12 0 9 7 18 16 22 8 3 20 16 25 30 5 13
20 28 34 33 14 5 28 18 32 27 8 23 51 62 81 74 12 5 22 15 22 23 0 7 16 26 35
40 19 15 35 34 35 42 0 8 4 13 9 9 18 -11 21 14 9 84 -11 62 -15 71 -34 71
-20 0 -21 -3 -13 -47 5 -25 7 -48 4 -51 -11 -11 -33 21 -39 58 -5 32 -10 40
-27 40 -19 0 -21 -4 -15 -31 5 -25 3 -30 -12 -27 -10 2 -18 14 -20 31 -3 21
-9 27 -27 27 -19 0 -22 -4 -17 -22 4 -17 2 -20 -12 -15 -10 4 -20 7 -22 7 -2
0 -4 7 -4 15 0 18 -36 20 -43 3 -3 -10 -9 -10 -23 -2 -25 14 -284 17 -284 3 0
-6 -6 -6 -19 1 -29 15 -144 13 -135 -2 6 -10 5 -10 -7 -1 -11 9 -104 12 -347
13 l-332 0 0 -2632z m4786 2107 c35 -23 57 -79 49 -123 -4 -21 -21 -50 -40
-69 -28 -28 -40 -33 -80 -33 -42 0 -52 5 -86 39 -31 31 -39 46 -39 75 0 107
108 169 196 111z m-4448 -225 c13 -69 25 -135 28 -146 3 -20 31 -40 41 -30 3
3 -13 90 -52 279 -2 9 0 17 5 17 4 0 10 -19 13 -43 3 -24 20 -77 37 -119 16
-42 30 -90 30 -106 0 -35 28 -52 46 -27 10 14 13 14 24 0 10 -13 11 -18 1 -28
-10 -9 -11 -8 -5 8 7 17 5 18 -7 8 -22 -18 -79 -26 -79 -11 0 6 -3 8 -7 4 -5
-4 1 -14 11 -22 25 -18 30 -45 8 -37 -10 3 -23 11 -31 17 -11 8 -13 8 -7 -2 9
-15 -26 -9 -83 14 -18 8 -52 14 -75 14 -64 0 -117 19 -153 55 -29 29 -33 39
-33 87 0 62 21 103 75 144 44 33 50 27 60 -55 6 -51 37 -112 51 -99 2 3 -4 45
-15 94 -20 91 -20 104 4 104 17 0 18 -6 44 -149 17 -92 29 -120 53 -121 7 0 6
7 -22 145 -25 121 -25 137 -2 133 13 -2 22 -28 40 -128z m1935 -604 c31 -9 57
-20 57 -24 0 -14 -358 -1343 -363 -1348 -6 -6 -128 25 -139 35 -4 3 4 49 18
101 14 52 83 311 154 575 71 264 141 526 156 583 21 82 30 102 43 98 9 -2 42
-12 74 -20z m1526 -70 c17 -21 41 -143 41 -213 0 -63 11 -87 26 -55 8 17 10
27 13 68 0 12 10 33 22 48 28 36 54 18 44 -30 -3 -20 -1 -35 6 -40 21 -13 1
-160 -33 -249 -17 -44 -35 -85 -41 -92 -8 -11 -4 -106 8 -157 3 -11 9 -66 15
-121 21 -221 32 -301 56 -418 14 -67 32 -160 39 -207 18 -106 42 -217 50 -231
7 -11 54 -41 125 -81 72 -41 215 -130 220 -139 11 -16 97 -42 152 -46 45 -4
58 -9 63 -24 5 -13 13 -18 28 -14 147 31 167 30 185 -10 14 -29 53 -33 98 -10
39 20 71 19 83 -2 6 -11 11 -13 12 -5 1 6 2 15 4 20 1 4 5 21 10 37 11 41 32
64 55 58 13 -3 20 2 25 19 13 41 172 179 210 182 13 0 21 4 18 9 -5 8 0 9 20
1 12 -4 12 -10 3 -30 -6 -13 -14 -24 -18 -24 -5 0 -8 -6 -8 -12 0 -7 -12 -26
-26 -43 -14 -16 -23 -37 -21 -47 4 -13 -1 -18 -14 -18 -10 0 -19 -2 -19 -4 0
-2 -3 -13 -6 -23 -6 -16 -5 -16 9 2 9 11 17 15 17 9 0 -16 -37 -47 -49 -40 -6
4 -15 -11 -22 -33 -10 -34 -9 -42 5 -56 13 -14 16 -14 16 -2 0 16 81 52 112
50 10 -1 18 3 18 8 0 6 4 8 9 5 5 -4 38 1 73 9 35 8 79 15 100 15 34 0 37 -3
52 -45 14 -44 14 -47 -5 -66 -11 -11 -33 -22 -49 -26 -17 -3 -30 -9 -30 -14 0
-5 -3 -8 -7 -7 -10 2 -103 -40 -103 -46 0 -3 12 -1 28 5 40 16 132 39 172 43
24 2 47 -4 75 -23 22 -14 51 -27 64 -28 13 -1 31 -8 40 -16 9 -8 25 -18 37
-21 29 -9 34 -66 34 -416 0 -358 -2 -366 -126 -535 -28 -38 -72 -88 -98 -110
-26 -22 -67 -73 -91 -113 l-45 -72 6 -123 6 -122 -32 -48 -32 -47 31 -49 c38
-58 74 -161 90 -256 7 -38 20 -95 29 -125 9 -30 16 -68 17 -85 0 -16 3 -35 7
-41 4 -5 5 -19 3 -30 -2 -10 -4 -22 -4 -26 -2 -16 -27 -7 -39 12 -7 11 -22 20
-35 21 -20 1 -20 2 6 13 40 18 26 23 -45 15 -52 -5 -65 -3 -75 10 -7 9 -17 21
-23 28 -5 7 -10 19 -10 28 0 20 -46 20 -54 0 -3 -8 0 -15 7 -15 7 0 13 -9 14
-20 1 -11 -4 -20 -10 -19 -19 3 -47 -12 -41 -22 3 -5 -1 -9 -8 -9 -23 -1 -420
-29 -506 -36 -97 -8 -316 10 -451 37 -93 19 -102 23 -151 67 -14 12 -28 22
-31 22 -22 0 -15 39 16 90 19 32 35 66 35 76 0 11 11 69 25 129 14 61 33 148
41 195 9 47 20 94 24 106 8 21 33 26 355 69 163 22 235 35 327 57 87 21 88 21
130 2 40 -18 117 -22 218 -12 20 2 24 -1 22 -17 -3 -15 -1 -17 8 -9 9 9 9 17
0 34 -7 13 -10 44 -7 75 4 43 2 52 -9 48 -18 -7 -18 -2 2 44 34 77 39 88 46
94 5 3 12 25 17 50 11 51 25 93 58 167 12 29 23 58 23 65 0 6 9 31 20 55 14
32 25 42 43 42 12 0 28 -5 35 -12 14 -14 16 -68 2 -68 -5 0 -10 -6 -10 -14 0
-8 18 -16 48 -21 74 -12 121 -14 126 -7 4 7 -17 30 -31 35 -5 1 -7 5 -6 9 2 4
-6 10 -17 13 -11 4 -17 11 -14 17 4 6 -1 6 -14 -1 -31 -16 -38 -13 -15 7 23
19 50 68 57 103 3 13 10 42 17 64 17 62 16 68 -26 133 -34 51 -46 62 -82 71
-77 20 -184 4 -262 -40 -49 -27 -46 -36 6 -18 44 14 106 14 134 -1 19 -11 27
-59 12 -74 -7 -7 -11 -18 -20 -68 -3 -18 -11 -40 -18 -48 -7 -8 -23 -46 -36
-83 -12 -38 -28 -71 -35 -74 -7 -2 -16 -19 -20 -36 -4 -18 -16 -41 -28 -52
-11 -11 -34 -38 -50 -60 -17 -22 -36 -44 -43 -48 -7 -4 -13 -24 -13 -43 0 -22
-6 -37 -15 -40 -8 -4 -15 -14 -16 -23 0 -18 -48 -59 -75 -64 -11 -2 -28 -7
-39 -11 -35 -13 -69 -24 -100 -32 -41 -10 -45 -11 -47 -14 -3 -2 -13 -4 -128
-21 -47 -7 -107 -23 -134 -35 -27 -13 -52 -21 -56 -19 -7 4 -93 -25 -132 -46
-9 -5 -35 -12 -57 -15 -23 -4 -38 -10 -36 -15 3 -4 -3 -7 -12 -7 -10 0 -52 -8
-93 -19 -46 -13 -92 -18 -118 -16 -37 5 -57 -1 -129 -38 -91 -45 -123 -53
-268 -69 -117 -12 -115 -12 -115 -22 0 -4 -3 -8 -8 -8 -4 0 -45 -36 -91 -80
-46 -44 -90 -80 -98 -80 -15 0 -18 26 -3 35 6 4 19 23 29 43 11 20 40 60 65
87 45 49 56 78 36 90 -6 4 -8 11 -5 16 4 5 -1 9 -10 9 -9 0 -14 4 -11 9 7 11
-123 32 -161 26 -15 -2 -59 -7 -96 -10 -67 -6 -68 -5 -65 17 2 16 14 26 39 35
63 20 186 43 236 43 l47 0 -51 48 c-41 38 -67 53 -134 75 -46 14 -93 28 -104
29 -14 2 -20 11 -20 28 0 25 1 25 78 23 60 -1 77 1 77 12 0 24 17 26 89 11 86
-18 115 -33 182 -94 71 -64 126 -83 269 -89 107 -5 120 -3 190 22 41 15 91 32
110 38 45 14 46 17 49 85 1 31 6 81 12 110 l10 52 400 0 399 0 0 540 0 540
-580 0 c-509 0 -580 2 -580 15 0 8 -6 15 -13 15 -7 0 -28 13 -47 30 -18 16
-36 31 -39 32 -3 2 -22 23 -41 48 -42 54 -80 89 -97 90 -7 0 -13 6 -13 14 0 7
-6 19 -14 25 -30 25 -55 319 -66 756 l-7 290 -66 131 c-64 127 -68 133 -124
167 -63 39 -123 95 -123 115 0 25 31 24 73 -4 61 -42 108 -63 140 -64 15 0 27
1 27 3 0 5 -41 108 -49 125 -32 62 -44 105 -34 120 5 10 16 17 23 17 12 0 94
-137 107 -178 3 -10 13 -17 22 -15 21 5 16 99 -10 182 -30 93 -22 147 17 115
18 -14 64 -113 64 -135 0 -8 5 -14 10 -14 6 0 10 -10 10 -22 1 -13 7 -34 14
-47 12 -22 13 -20 20 34 3 31 3 85 0 120 -4 35 -4 71 -1 79 8 20 31 21 46 2z
m-2104 -506 l-100 -100 99 -99 c111 -111 108 -95 34 -175 l-38 -41 -157 157
-158 158 155 155 155 155 55 -55 55 -55 -100 -100z m1072 -103 c-1 -4 -69 -75
-152 -157 l-149 -150 -56 55 -55 55 100 100 100 100 -100 100 -99 100 54 55
55 55 152 -152 c84 -84 152 -156 150 -161z m2377 -28 c73 -24 132 -51 147 -66
25 -23 27 -30 23 -91 -2 -37 -6 -78 -8 -92 -3 -18 5 -34 30 -60 39 -39 40 -48
18 -96 -17 -36 -50 -71 -38 -40 5 13 2 15 -12 9 -17 -6 -17 -5 -6 10 12 14 11
15 -12 11 -15 -2 -26 0 -26 6 0 6 -4 8 -10 5 -5 -3 -16 -3 -22 2 -7 4 -15 8
-18 9 -12 2 -47 16 -65 26 -14 8 -20 8 -23 -1 -3 -9 -7 -9 -18 0 -11 9 -14 8
-14 -7 -1 -17 -2 -17 -10 -2 -7 11 -7 25 0 42 5 14 6 26 1 26 -5 0 -11 51 -14
113 -8 148 -16 185 -52 220 -25 25 -5 22 129 -24z m601 -129 c3 -5 12 -7 19
-4 22 9 48 -42 40 -81 -7 -41 -20 -45 -35 -12 -6 13 -26 29 -44 36 -42 15 -57
32 -44 51 8 13 10 13 19 0 8 -13 10 -12 10 3 0 18 25 24 35 7z m42 -152 c-3
-8 -6 -5 -6 6 -1 11 2 17 5 13 3 -3 4 -12 1 -19z m-717 -58 c0 -5 -5 -10 -11
-10 -5 0 -7 5 -4 10 3 6 8 10 11 10 2 0 4 -4 4 -10z m664 -20 c36 -16 66 -34
66 -40 0 -13 0 -13 -46 4 -80 29 -115 47 -109 56 9 15 17 13 89 -20z m-707
-65 c0 -8 -4 -12 -9 -9 -5 3 -6 10 -3 15 9 13 12 11 12 -6z m-13 -36 c-2 -3
16 -12 39 -19 53 -17 69 -30 36 -30 -14 0 -29 -4 -34 -9 -6 -5 -21 -12 -34
-16 -18 -5 -22 -4 -17 6 4 8 1 6 -7 -3 -8 -10 -24 -18 -36 -18 -11 0 -21 -5
-21 -10 0 -6 -6 -10 -12 -8 -26 5 -125 -52 -112 -64 2 -3 -26 -8 -63 -11 -83
-6 -133 -29 -133 -62 0 -23 22 -50 32 -39 3 3 9 0 14 -7 4 -7 3 -10 -4 -5 -7
4 -16 -9 -23 -34 -9 -29 -15 -37 -21 -28 -6 9 -8 2 -6 -18 4 -28 -14 -54 -37
-54 -10 0 -5 49 8 62 17 19 37 56 37 68 0 5 -6 10 -14 10 -19 0 -76 -73 -76
-98 0 -32 -7 -32 -137 -16 -29 4 -53 10 -53 14 0 13 113 113 175 155 33 22 62
43 65 46 9 11 300 146 330 154 3 0 15 6 28 13 12 7 26 11 31 8 5 -3 14 1 21 9
11 13 10 14 -6 8 -16 -6 -17 -5 -4 9 10 11 17 12 26 4 7 -6 10 -14 8 -17z m61
1 c13 -5 14 -9 5 -9 -8 0 -24 4 -35 9 -13 5 -14 9 -5 9 8 0 24 -4 35 -9z m12
-66 c-3 -3 -12 -4 -19 -1 -8 3 -5 6 6 6 11 1 17 -2 13 -5z m795 -182 c6 -15
10 -31 9 -36 -1 -4 3 -14 9 -21 6 -7 10 -17 9 -21 -5 -30 4 -58 26 -78 20 -19
25 -33 25 -72 0 -65 17 -168 29 -172 5 -2 7 -12 4 -22 -3 -11 -2 -45 2 -76 5
-42 10 -54 21 -50 8 3 14 1 14 -4 0 -6 -4 -10 -10 -10 -5 0 -10 -7 -10 -16 0
-9 5 -12 12 -8 7 5 8 3 4 -5 -5 -7 -1 -20 8 -30 9 -10 14 -25 11 -34 -4 -8 -2
-18 4 -22 27 -16 6 -25 -59 -25 -61 0 -71 3 -81 22 -10 18 -9 20 5 15 10 -4
16 -1 16 7 0 8 -8 13 -17 12 -12 -1 -17 5 -15 17 2 9 -2 17 -8 17 -5 0 -10 14
-10 30 0 17 -4 30 -10 30 -11 0 -12 -8 -14 -89 -1 -33 -6 -56 -14 -59 -7 -2
-12 -21 -12 -45 0 -31 -3 -38 -10 -27 -8 13 -10 12 -10 -2 0 -10 5 -18 10 -18
6 0 10 -7 10 -15 0 -9 -6 -12 -15 -9 -8 4 -15 12 -15 19 0 8 -4 17 -10 20 -6
3 -7 -1 -4 -9 3 -9 2 -16 -4 -16 -6 0 -16 16 -22 36 -7 20 -21 39 -34 44 -12
4 -30 24 -41 44 -11 20 -23 36 -28 36 -4 0 -6 4 -2 9 3 5 1 12 -5 16 -5 3 -10
11 -10 17 0 7 4 7 13 -1 8 -6 17 -8 20 -4 4 3 7 -1 7 -9 0 -9 7 -21 16 -29 12
-10 17 -10 23 0 6 10 15 6 35 -14 15 -15 30 -24 34 -20 9 8 9 76 0 150 -7 57
-6 58 7 30 l14 -30 -1 37 c-2 20 1 40 4 44 4 3 1 19 -7 34 -8 15 -17 43 -19
61 -3 19 -8 50 -12 69 -4 26 -3 31 5 20 9 -12 11 -10 10 10 0 14 -4 49 -8 78
-9 64 4 56 30 -20 l19 -53 -6 45 c-4 25 -10 52 -14 60 -4 8 -10 44 -14 80 l-6
65 20 -24 c11 -13 21 -19 21 -15 5 39 21 74 31 68 5 -3 14 -18 20 -32z m-756
-8 c6 -8 17 -14 23 -14 7 0 10 -4 7 -8 -3 -5 8 -19 24 -31 21 -15 30 -30 30
-49 0 -30 -20 -82 -32 -82 -5 0 -8 -5 -8 -11 0 -12 -46 -59 -57 -59 -4 0 -14
-6 -22 -13 -9 -8 -36 -22 -61 -31 -25 -10 -60 -29 -79 -43 -18 -14 -46 -26
-61 -27 -16 -1 -26 -5 -23 -9 3 -4 -8 -6 -24 -4 -37 5 -117 108 -126 163 -8
47 38 178 59 170 7 -3 14 -1 16 4 2 5 23 11 48 14 25 2 46 5 48 5 2 1 0 6 -3
11 -3 6 3 10 13 10 11 0 23 7 26 16 5 14 19 15 99 9 60 -4 96 -12 103 -21z
m-764 -8 c-44 -48 -132 -93 -132 -67 0 18 52 71 70 71 10 0 21 3 23 8 3 4 16
7 30 7 24 0 25 -1 9 -19z m1263 -44 c-18 -41 -22 -125 -10 -184 4 -22 3 -38
-2 -38 -5 0 -7 -26 -5 -59 3 -48 1 -59 -13 -64 -13 -6 -15 -3 -10 13 4 11 2
20 -4 20 -5 0 -12 8 -15 18 -3 9 -4 -14 -2 -53 1 -38 1 -59 -1 -45 -5 24 -5
24 -21 -10 l-15 -35 -6 35 c-4 19 -4 36 -1 38 3 1 4 20 2 41 -2 21 1 42 7 45
6 4 11 22 11 39 0 33 30 141 43 153 4 4 7 18 7 30 0 13 4 33 9 46 5 13 13 32
17 43 7 18 7 19 11 2 3 -10 1 -26 -2 -35z m-750 -352 c-3 -5 -12 -10 -18 -10
-7 0 -6 4 3 10 19 12 23 12 15 0z m726 -37 c-10 -17 -10 -16 -11 3 0 23 13 41
18 25 2 -6 -1 -18 -7 -28z m11 -47 c3 -14 1 -31 -3 -38 -6 -8 -9 1 -9 25 0 42
6 48 12 13z m98 -281 c7 -9 8 -15 2 -15 -5 0 -12 7 -16 15 -3 8 -4 15 -2 15 2
0 9 -7 16 -15z m-4053 -238 c-5 -16 -126 -80 -231 -122 -84 -34 -89 -35 -102
-18 -7 10 -14 21 -14 24 0 4 39 21 88 38 48 17 119 49 157 70 53 29 74 36 88
29 10 -5 16 -15 14 -21z m-757 -82 l34 -105 114 0 114 0 -84 -61 c-45 -34 -87
-65 -92 -69 -4 -5 8 -56 27 -114 20 -58 33 -106 31 -106 -3 0 -46 29 -95 64
l-90 65 -88 -65 c-49 -35 -91 -64 -94 -64 -3 0 10 46 29 102 19 56 33 106 32
110 -2 4 -43 37 -93 73 l-90 65 116 0 115 0 34 105 c19 58 37 105 40 105 3 0
21 -47 40 -105z m1960 -16 c0 -90 0 -91 18 -69 13 16 32 24 70 28 48 4 54 2
86 -30 76 -76 70 -254 -10 -317 -36 -28 -102 -28 -138 0 l-27 22 -15 -22 c-12
-16 -26 -21 -60 -21 l-44 0 0 250 0 250 60 0 60 0 0 -91z m2034 60 c89 -25
115 -106 55 -174 -17 -19 -37 -35 -45 -35 -8 0 -14 -4 -14 -10 0 -5 9 -10 20
-10 11 0 34 -13 51 -28 26 -23 32 -36 32 -71 0 -89 -53 -132 -172 -139 -42 -2
-95 1 -118 7 l-43 12 0 51 c0 48 1 50 23 43 12 -4 51 -9 87 -12 72 -6 94 6 88
48 -4 27 -20 36 -80 44 l-48 6 0 45 0 44 38 0 c49 0 86 20 90 48 6 42 -50 50
-129 18 -11 -5 -23 5 -42 33 -31 47 -24 57 51 77 59 16 106 17 156 3z m-2755
-9 c105 -30 132 -154 51 -230 l-29 -27 65 -96 c35 -53 64 -99 64 -102 0 -3
-31 -5 -69 -5 l-69 0 -48 85 c-32 58 -53 85 -66 85 -16 0 -18 -9 -18 -85 l0
-86 -62 3 -63 3 -3 233 -2 232 107 0 c60 0 124 -4 142 -10z m2418 -222 l-2
-233 -62 -3 -63 -3 0 166 0 167 -42 -36 -41 -36 -33 38 c-18 20 -33 39 -33 42
0 3 35 33 77 67 75 61 78 62 139 62 l62 1 -2 -232z m-417 168 c0 -34 1 -35 43
-38 l42 -3 0 -45 0 -45 -43 -3 -43 -3 3 -82 3 -82 43 0 42 0 0 -42 c0 -51 -17
-63 -90 -63 -105 0 -130 36 -130 188 0 75 -2 82 -20 82 -33 0 -27 51 9 78 16
12 35 37 42 57 12 33 16 35 56 35 42 0 43 -1 43 -34z m-2460 -46 c24 -17 -49
-74 -165 -131 -126 -61 -159 -69 -175 -40 -9 18 -8 22 7 28 100 35 184 73 235
108 69 47 76 49 98 35z m908 -9 c48 -25 71 -65 78 -140 l7 -61 -116 0 c-111 0
-115 -1 -110 -20 3 -11 15 -25 26 -31 20 -12 118 -8 150 6 15 6 17 1 17 -38 0
-43 -2 -46 -36 -57 -55 -19 -177 -9 -211 16 -55 41 -73 80 -73 158 0 84 26
138 81 167 47 25 139 25 187 0z m839 -7 c42 -32 66 -70 73 -116 18 -136 -43
-219 -168 -226 -58 -3 -72 0 -102 20 -71 48 -102 135 -80 219 26 95 78 131
182 126 49 -2 75 -8 95 -23z m397 12 c18 -8 46 -31 62 -52 27 -34 29 -44 29
-120 0 -68 -4 -87 -21 -110 -35 -48 -70 -67 -129 -72 -113 -9 -189 48 -201
154 -11 90 23 165 88 197 41 20 127 22 172 3z m-2088 -161 c18 -15 17 -17 -31
-61 -95 -86 -353 -195 -390 -164 -21 18 -19 40 5 40 33 0 209 67 265 101 29
17 68 46 86 64 40 39 40 39 65 20z m3734 -1679 c0 -3 -4 -8 -10 -11 -5 -3 -10
-1 -10 4 0 6 5 11 10 11 6 0 10 -2 10 -4z"/>
<path d="M3905 4580 c-3 -5 -1 -10 4 -10 6 0 11 5 11 10 0 6 -2 10 -4 10 -3 0
-8 -4 -11 -10z"/>
<path d="M3860 4457 c0 -9 -3 -17 -8 -17 -9 0 -47 -68 -41 -74 2 -2 14 0 26 4
15 6 23 21 28 50 4 23 4 44 1 47 -3 4 -6 -1 -6 -10z"/>
<path d="M5252 2480 c0 -14 2 -19 5 -12 2 6 2 18 0 25 -3 6 -5 1 -5 -13z"/>
<path d="M5581 1929 c-1 -9 7 -23 17 -30 15 -12 16 -12 6 1 -6 8 -14 22 -17
30 -5 13 -6 12 -6 -1z"/>
<path d="M5542 1912 c-6 -5 -14 -22 -16 -39 -2 -18 -15 -46 -30 -63 -30 -36
-31 -45 -13 -84 9 -20 18 -26 34 -23 12 2 20 0 17 -4 -3 -5 0 -9 5 -9 6 0 11
10 11 23 0 16 3 18 9 9 11 -18 52 50 56 93 2 16 1 25 -2 18 -7 -18 -38 18 -40
46 -2 30 -14 43 -31 33z"/>
<path d="M5607 1873 c-4 -3 -7 -11 -7 -17 0 -6 5 -5 12 2 6 6 9 14 7 17 -3 3
-9 2 -12 -2z"/>
<path d="M5191 1299 c-25 -23 -24 -55 1 -53 13 1 16 -4 12 -25 -5 -21 0 -29
27 -45 30 -18 31 -20 13 -27 -15 -7 -12 -8 11 -6 27 2 30 -1 28 -25 -1 -16 1
-28 5 -28 7 0 8 -15 3 -80 -2 -23 -3 -24 -11 -5 -8 19 -9 19 -9 -1 -1 -16 6
-23 26 -27 31 -6 73 7 73 23 0 5 9 10 20 10 l21 0 -21 -22 c-11 -12 -20 -32
-20 -45 0 -20 5 -23 40 -23 22 0 40 5 40 11 0 5 5 7 10 4 20 -12 9 16 -23 63
-42 61 -70 89 -85 84 -9 -3 -12 16 -12 65 0 76 -8 115 -21 107 -5 -3 -9 1 -9
9 0 10 -7 13 -19 10 -26 -7 -62 14 -55 32 9 22 -19 18 -45 -6z"/>
<path d="M5366 1211 c1 -14 3 -29 3 -33 2 -14 19 -9 25 7 7 19 -2 42 -18 48
-7 3 -11 -5 -10 -22z"/>
<path d="M5200 1160 c0 -5 5 -10 10 -10 6 0 10 5 10 10 0 6 -4 10 -10 10 -5 0
-10 -4 -10 -10z"/>
<path d="M5368 1155 c-3 -3 -4 -15 -1 -26 4 -14 14 -19 39 -19 40 0 44 10 9
27 -19 8 -25 8 -26 0 0 -7 -4 -4 -8 6 -3 10 -9 15 -13 12z"/>
<path d="M5167 1104 c-3 -3 -3 -13 0 -22 4 -15 3 -15 -10 1 -17 20 -27 22 -27
5 0 -9 -17 -14 -49 -14 -52 -2 -104 -29 -96 -51 2 -6 -3 -19 -10 -30 -17 -21
-19 -53 -4 -53 5 0 7 -5 3 -11 -5 -8 -9 -8 -14 1 -10 17 -31 3 -23 -15 3 -8 0
-15 -6 -15 -6 0 -11 5 -11 10 0 6 -4 10 -10 10 -5 0 -10 -6 -10 -14 0 -15 -45
-66 -58 -66 -5 0 -15 -7 -22 -14 -11 -15 -100 -18 -100 -5 0 6 -60 -3 -117
-16 -14 -3 -23 -13 -23 -24 0 -21 29 -36 42 -23 6 6 25 6 46 1 20 -5 52 -9 70
-9 17 0 32 -4 32 -8 0 -5 23 -10 51 -11 37 -1 67 6 108 25 49 22 75 27 203 33
118 5 150 10 166 24 10 9 25 17 33 17 18 0 39 19 39 35 0 7 -6 12 -14 12 -8 0
-40 12 -72 27 -130 60 -129 59 -129 91 0 23 4 30 20 30 13 0 20 6 19 18 -3 67
-8 79 -27 61z"/>
<path d="M5211 1053 c0 -6 -4 -20 -7 -30 -5 -14 -4 -15 5 -7 7 7 11 20 8 30
-3 11 -5 14 -6 7z"/>
<path d="M5230 1000 c0 -5 5 -10 10 -10 6 0 10 5 10 10 0 6 -4 10 -10 10 -5 0
-10 -4 -10 -10z"/>
<path d="M5323 923 c-19 -7 -16 -19 6 -20 11 -1 22 5 25 13 5 14 -8 17 -31 7z"/>
<path d="M5350 775 c-10 -13 -9 -15 8 -15 15 0 20 5 16 15 -4 8 -7 15 -9 15
-1 0 -8 -7 -15 -15z"/>
<path d="M5816 3033 c8 -84 22 -104 19 -28 -1 31 -5 58 -8 61 -3 3 -3 12 0 20
3 8 0 14 -6 14 -8 0 -10 -20 -5 -67z"/>
<path d="M4762 3514 c-15 -11 -22 -25 -22 -50 0 -19 3 -34 6 -34 3 0 24 13 47
30 30 21 51 28 72 26 17 -2 44 4 60 12 l30 16 -40 7 c-67 13 -129 10 -153 -7z"/>
<path d="M5572 3325 c0 -16 2 -22 5 -12 2 9 2 23 0 30 -3 6 -5 -1 -5 -18z"/>
<path d="M2900 2382 c-27 -8 -40 -35 -40 -82 0 -51 22 -90 50 -90 27 0 50 38
50 82 0 67 -23 102 -60 90z"/>
<path d="M2027 2483 c-4 -3 -7 -28 -7 -55 0 -46 1 -48 28 -48 33 0 62 27 62
58 0 33 -62 67 -83 45z"/>
<path d="M2466 2384 c-31 -30 -20 -44 34 -44 54 0 65 14 32 43 -23 21 -46 22
-66 1z"/>
<path d="M3289 2374 c-18 -22 -23 -114 -7 -144 16 -30 59 -38 79 -14 8 10 14
41 14 81 0 52 -4 67 -19 79 -26 18 -50 18 -67 -2z"/>
<path d="M3707 2372 c-23 -25 -23 -119 -1 -150 26 -37 66 -26 81 21 31 94 -27
187 -80 129z"/>
<path d="M1450 6393 c0 -23 33 -159 40 -168 6 -7 4 -20 -6 -36 -15 -24 -15
-24 3 -3 10 11 24 19 32 16 9 -3 11 2 8 14 -3 11 -11 46 -17 79 -19 104 -19
105 -40 105 -11 0 -20 -3 -20 -7z"/>
<path d="M1530 6388 c0 -36 45 -255 54 -265 8 -8 36 26 109 133 l98 144 -96 0
c-94 0 -95 0 -90 -22 22 -99 23 -113 11 -142 l-13 -31 -6 30 c-4 17 -12 60
-18 98 -9 55 -14 67 -30 67 -10 0 -19 -6 -19 -12z"/>
<path d="M1450 6246 c0 -2 7 -9 15 -16 13 -11 14 -10 9 4 -5 14 -24 23 -24 12z"/>
<path d="M1440 6226 c0 -2 8 -10 18 -17 15 -13 16 -12 3 4 -13 16 -21 21 -21
13z"/>
<path d="M1237 5573 c-4 -3 -7 -11 -7 -17 0 -6 5 -5 12 2 6 6 9 14 7 17 -3 3
-9 2 -12 -2z"/>
<path d="M6167 2442 c-25 -28 -21 -69 8 -88 31 -20 53 -15 77 17 17 23 18 30
8 50 -23 44 -65 53 -93 21z m77 -24 c15 -25 -3 -52 -38 -56 -20 -3 -28 2 -35
20 -13 33 4 60 36 56 14 -2 31 -11 37 -20z"/>
<path d="M6195 2410 c-8 -13 4 -32 16 -25 12 8 12 35 0 35 -6 0 -13 -4 -16
-10z"/>
</g>
</svg>
