<svg xmlns="http://www.w3.org/2000/svg" width="74" height="75" viewBox="0 0 74 75" fill="none"><path d="M37 0.1C16.7 0.1 0 16.7 0 37.1 0 57.4 16.7 74.1 37 74.1 57.4 74.1 74 57.4 74 37.1 74 16.7 57.4 0.1 37 0.1ZM16.4 57.7C10.8 52.1 7.9 44.7 7.9 37.6L36.7 66.1C29.3 65.9 21.9 63.2 16.4 57.7ZM43.3 65.4L8.7 30.7C11.6 17.8 23.3 8 37 8 46.8 8 55.2 12.8 60.5 19.9L56.6 23.3C52.1 17.3 44.9 13.3 37 13.3 26.7 13.3 18 19.9 14.5 29.1L44.9 59.5C52.6 56.9 58.4 50.3 60.3 42.4H47.6V37.1H66.1C66.1 50.8 56.3 62.4 43.3 65.4Z" fill="#FC2602"/></svg>